<mxfile host="Electron" modified="2023-11-07T23:39:38.832Z" agent="Mozilla/5.0 (Windows NT 10.0; Win64; x64) AppleWebKit/537.36 (KHTML, like Gecko) draw.io/22.0.3 Chrome/114.0.5735.289 Electron/25.8.4 Safari/537.36" etag="EtZM_RWUSJRngezSgC1Z" version="22.0.3" type="device">
  <diagram name="Page-1" id="13e1069c-82ec-6db2-03f1-153e76fe0fe0">
    <mxGraphModel dx="1288" dy="669" grid="1" gridSize="10" guides="1" tooltips="1" connect="1" arrows="1" fold="1" page="1" pageScale="1" pageWidth="1100" pageHeight="850" background="none" math="0" shadow="0">
      <root>
        <mxCell id="0" />
        <mxCell id="1" parent="0" />
        <mxCell id="7baba1c4bc27f4b0-2" value=":ServiceAcessGui-simulator&lt;br&gt;.Request&lt;br&gt;." style="shape=umlLifeline;perimeter=lifelinePerimeter;whiteSpace=wrap;html=1;container=1;collapsible=0;recursiveResize=0;outlineConnect=0;rounded=1;shadow=0;comic=0;labelBackgroundColor=none;strokeWidth=1;fontFamily=Verdana;fontSize=12;align=center;size=90;" parent="1" vertex="1">
          <mxGeometry x="220" y="70" width="110" height="590" as="geometry" />
        </mxCell>
        <mxCell id="7baba1c4bc27f4b0-10" value="" style="html=1;points=[];perimeter=orthogonalPerimeter;rounded=0;shadow=0;comic=0;labelBackgroundColor=none;strokeWidth=1;fontFamily=Verdana;fontSize=12;align=center;" parent="7baba1c4bc27f4b0-2" vertex="1">
          <mxGeometry x="50" y="120" width="10" height="440" as="geometry" />
        </mxCell>
        <mxCell id="7baba1c4bc27f4b0-40" value="Possibili interazioni CSS &amp;lt;-&amp;gt;SAG-simulator a seguito di una store request" style="shape=note;whiteSpace=wrap;html=1;size=14;verticalAlign=top;align=left;spacingTop=-6;rounded=0;shadow=0;comic=0;labelBackgroundColor=none;strokeWidth=1;fontFamily=Verdana;fontSize=12" parent="1" vertex="1">
          <mxGeometry x="100" y="30" width="510" height="35" as="geometry" />
        </mxCell>
        <mxCell id="7baba1c4bc27f4b0-4" value=":CSSctx&lt;br&gt;.TicketManager" style="shape=umlLifeline;perimeter=lifelinePerimeter;whiteSpace=wrap;html=1;container=1;collapsible=0;recursiveResize=0;outlineConnect=0;rounded=1;shadow=0;comic=0;labelBackgroundColor=none;strokeWidth=1;fontFamily=Verdana;fontSize=12;align=center;" parent="1" vertex="1">
          <mxGeometry x="658" y="80" width="100" height="570" as="geometry" />
        </mxCell>
        <mxCell id="7baba1c4bc27f4b0-16" value="" style="html=1;points=[];perimeter=orthogonalPerimeter;rounded=0;shadow=0;comic=0;labelBackgroundColor=none;strokeWidth=1;fontFamily=Verdana;fontSize=12;align=center;" parent="7baba1c4bc27f4b0-4" vertex="1">
          <mxGeometry x="45" y="80" width="10" height="450" as="geometry" />
        </mxCell>
        <mxCell id="7baba1c4bc27f4b0-7" value=":CSSctx" style="shape=umlLifeline;perimeter=lifelinePerimeter;whiteSpace=wrap;html=1;container=1;collapsible=0;recursiveResize=0;outlineConnect=0;rounded=1;shadow=0;comic=0;labelBackgroundColor=none;strokeWidth=1;fontFamily=Verdana;fontSize=12;align=center;size=70;points=[];" parent="1" vertex="1">
          <mxGeometry x="350" y="80" width="160" height="580" as="geometry" />
        </mxCell>
        <mxCell id="WGYdtUEUaQrTIStyGSWO-5" value="" style="html=1;points=[];perimeter=orthogonalPerimeter;rounded=0;shadow=0;comic=0;labelBackgroundColor=none;strokeWidth=1;fontFamily=Verdana;fontSize=12;align=center;" parent="7baba1c4bc27f4b0-7" vertex="1">
          <mxGeometry x="77.5" y="90" width="10" height="460" as="geometry" />
        </mxCell>
        <mxCell id="WGYdtUEUaQrTIStyGSWO-15" value="connAccepted" style="html=1;verticalAlign=bottom;endArrow=open;dashed=1;endSize=8;labelBackgroundColor=none;fontFamily=Verdana;fontSize=12;edgeStyle=elbowEdgeStyle;elbow=vertical;exitX=-0.145;exitY=0.213;exitDx=0;exitDy=0;exitPerimeter=0;" parent="7baba1c4bc27f4b0-7" edge="1" source="WGYdtUEUaQrTIStyGSWO-5">
          <mxGeometry x="-0.1339" relative="1" as="geometry">
            <mxPoint x="-70.00333333333326" y="190" as="targetPoint" />
            <Array as="points">
              <mxPoint x="-43.67" y="190" />
              <mxPoint x="-38.67" y="200" />
            </Array>
            <mxPoint x="70" y="190" as="sourcePoint" />
            <mxPoint as="offset" />
          </mxGeometry>
        </mxCell>
        <mxCell id="dP_4IrJM_J5E9Byek_nk-1" value="storeRequest" style="html=1;verticalAlign=bottom;endArrow=block;labelBackgroundColor=none;fontFamily=Verdana;fontSize=12;" parent="7baba1c4bc27f4b0-7" target="7baba1c4bc27f4b0-5" edge="1">
          <mxGeometry x="0.653" relative="1" as="geometry">
            <mxPoint x="-70" y="210" as="sourcePoint" />
            <mxPoint x="269.03999999999996" y="210" as="targetPoint" />
            <Array as="points" />
            <mxPoint as="offset" />
          </mxGeometry>
        </mxCell>
        <mxCell id="7baba1c4bc27f4b0-5" value=":CSSctx&lt;br&gt;.ColdRoomManger" style="shape=umlLifeline;perimeter=lifelinePerimeter;whiteSpace=wrap;html=1;container=1;collapsible=0;recursiveResize=0;outlineConnect=0;rounded=1;shadow=0;comic=0;labelBackgroundColor=none;strokeWidth=1;fontFamily=Verdana;fontSize=12;align=center;size=70;" parent="1" vertex="1">
          <mxGeometry x="538" y="80" width="100" height="570" as="geometry" />
        </mxCell>
        <mxCell id="7baba1c4bc27f4b0-19" value="" style="html=1;points=[];perimeter=orthogonalPerimeter;rounded=0;shadow=0;comic=0;labelBackgroundColor=none;strokeWidth=1;fontFamily=Verdana;fontSize=12;align=center;" parent="7baba1c4bc27f4b0-5" vertex="1">
          <mxGeometry x="45" y="80" width="10" height="450" as="geometry" />
        </mxCell>
        <mxCell id="uQc3PaK5IC3-zHGG-y3b-27" value="TruckLoad&amp;lt;=FreeSpace" style="shape=umlFrame;whiteSpace=wrap;html=1;pointerEvents=0;recursiveResize=0;container=1;collapsible=0;width=170;" parent="1" vertex="1">
          <mxGeometry x="240" y="360" width="750" height="240" as="geometry" />
        </mxCell>
        <mxCell id="uQc3PaK5IC3-zHGG-y3b-28" value="False" style="text;html=1;" parent="uQc3PaK5IC3-zHGG-y3b-27" vertex="1">
          <mxGeometry width="100" height="20" relative="1" as="geometry">
            <mxPoint x="50" y="30" as="offset" />
          </mxGeometry>
        </mxCell>
        <mxCell id="uQc3PaK5IC3-zHGG-y3b-29" value="" style="line;strokeWidth=1;dashed=1;labelPosition=center;verticalLabelPosition=bottom;align=left;verticalAlign=top;spacingLeft=20;spacingTop=15;html=1;whiteSpace=wrap;" parent="uQc3PaK5IC3-zHGG-y3b-27" vertex="1">
          <mxGeometry y="125" width="910" height="10" as="geometry" />
        </mxCell>
        <mxCell id="WGYdtUEUaQrTIStyGSWO-29" value="&lt;br&gt;&lt;i&gt;&lt;b&gt;loadaccepted&lt;/b&gt;&lt;/i&gt;" style="html=1;verticalAlign=bottom;endArrow=open;dashed=1;endSize=8;labelBackgroundColor=none;fontFamily=Verdana;fontSize=12;edgeStyle=elbowEdgeStyle;elbow=horizontal;exitX=0.005;exitY=0.867;exitDx=0;exitDy=0;exitPerimeter=0;" parent="uQc3PaK5IC3-zHGG-y3b-27" source="7baba1c4bc27f4b0-19" edge="1">
          <mxGeometry x="-0.2272" relative="1" as="geometry">
            <mxPoint x="40" y="190" as="targetPoint" />
            <Array as="points" />
            <mxPoint x="380" y="190" as="sourcePoint" />
            <mxPoint as="offset" />
          </mxGeometry>
        </mxCell>
        <mxCell id="WGYdtUEUaQrTIStyGSWO-20" value="disconnect" style="html=1;verticalAlign=bottom;endArrow=block;labelBackgroundColor=none;fontFamily=Verdana;fontSize=12;" parent="1" edge="1">
          <mxGeometry x="0.0869" relative="1" as="geometry">
            <mxPoint x="430" y="620" as="sourcePoint" />
            <mxPoint x="280" y="620" as="targetPoint" />
            <Array as="points" />
            <mxPoint as="offset" />
          </mxGeometry>
        </mxCell>
        <mxCell id="uQc3PaK5IC3-zHGG-y3b-26" value="&lt;i&gt;&lt;b&gt;loadrejected&lt;/b&gt;&lt;/i&gt;" style="html=1;verticalAlign=bottom;endArrow=open;dashed=1;endSize=8;labelBackgroundColor=none;fontFamily=Verdana;fontSize=12;edgeStyle=elbowEdgeStyle;elbow=vertical;entryX=1.042;entryY=0.531;entryDx=0;entryDy=0;entryPerimeter=0;exitX=-0.007;exitY=0.587;exitDx=0;exitDy=0;exitPerimeter=0;" parent="1" edge="1" target="7baba1c4bc27f4b0-10" source="7baba1c4bc27f4b0-19">
          <mxGeometry x="-0.2272" relative="1" as="geometry">
            <mxPoint x="290" y="420" as="targetPoint" />
            <Array as="points">
              <mxPoint x="535.5" y="424" />
              <mxPoint x="366.5" y="454" />
            </Array>
            <mxPoint x="810" y="424" as="sourcePoint" />
            <mxPoint as="offset" />
          </mxGeometry>
        </mxCell>
        <mxCell id="uQc3PaK5IC3-zHGG-y3b-1" value="generateticket" style="html=1;verticalAlign=bottom;endArrow=block;labelBackgroundColor=none;fontFamily=Verdana;fontSize=12;entryX=-0.153;entryY=0.8;entryDx=0;entryDy=0;entryPerimeter=0;exitX=0.949;exitY=0.8;exitDx=0;exitDy=0;exitPerimeter=0;" parent="1" edge="1" target="7baba1c4bc27f4b0-16" source="7baba1c4bc27f4b0-19">
          <mxGeometry x="-0.161" relative="1" as="geometry">
            <mxPoint x="598" y="520" as="sourcePoint" />
            <mxPoint x="867.4999999999998" y="520" as="targetPoint" />
            <Array as="points">
              <mxPoint x="685.5" y="520" />
            </Array>
            <mxPoint as="offset" />
          </mxGeometry>
        </mxCell>
        <mxCell id="uQc3PaK5IC3-zHGG-y3b-24" value="" style="html=1;verticalAlign=bottom;endArrow=open;dashed=1;endSize=8;labelBackgroundColor=none;fontFamily=Verdana;fontSize=12;edgeStyle=elbowEdgeStyle;elbow=vertical;exitX=0.1;exitY=0.843;exitDx=0;exitDy=0;exitPerimeter=0;entryX=1.217;entryY=0.843;entryDx=0;entryDy=0;entryPerimeter=0;" parent="1" edge="1" target="7baba1c4bc27f4b0-19" source="7baba1c4bc27f4b0-16">
          <mxGeometry x="-0.2789" y="-1" relative="1" as="geometry">
            <mxPoint x="598" y="539" as="targetPoint" />
            <Array as="points" />
            <mxPoint x="698" y="539" as="sourcePoint" />
            <mxPoint as="offset" />
          </mxGeometry>
        </mxCell>
        <mxCell id="uQc3PaK5IC3-zHGG-y3b-25" value="&lt;font style=&quot;font-size: 12px;&quot;&gt;ticket&lt;/font&gt;" style="edgeLabel;html=1;align=center;verticalAlign=middle;resizable=0;points=[];" parent="uQc3PaK5IC3-zHGG-y3b-24" connectable="0" vertex="1">
          <mxGeometry x="0.451" relative="1" as="geometry">
            <mxPoint x="41" y="-10" as="offset" />
          </mxGeometry>
        </mxCell>
        <mxCell id="AGua0CPx958JIJfiTB0Z-4" value="True" style="text;html=1;" vertex="1" parent="1">
          <mxGeometry x="300" y="500" width="100" height="20" as="geometry" />
        </mxCell>
        <mxCell id="WGYdtUEUaQrTIStyGSWO-10" value="connect" style="html=1;verticalAlign=bottom;endArrow=block;labelBackgroundColor=none;fontFamily=Verdana;fontSize=12;exitX=1.073;exitY=0.025;exitDx=0;exitDy=0;exitPerimeter=0;entryX=-0.021;entryY=0.066;entryDx=0;entryDy=0;entryPerimeter=0;" parent="1" edge="1" target="WGYdtUEUaQrTIStyGSWO-5" source="7baba1c4bc27f4b0-10">
          <mxGeometry x="0.3125" y="1" relative="1" as="geometry">
            <mxPoint x="155" y="200.8" as="sourcePoint" />
            <mxPoint x="430" y="200" as="targetPoint" />
            <Array as="points" />
            <mxPoint as="offset" />
          </mxGeometry>
        </mxCell>
      </root>
    </mxGraphModel>
  </diagram>
</mxfile>
